<svg xmlns="http://www.w3.org/2000/svg" viewBox="0 0 512 512">
  <defs>
    <linearGradient id="bg" x1="0%" y1="0%" x2="100%" y2="100%">
      <stop offset="0%" stop-color="#2d3748"/>
      <stop offset="50%" stop-color="#1a202c"/>
      <stop offset="100%" stop-color="#171923"/>
    </linearGradient>
    <linearGradient id="folder" x1="0%" y1="0%" x2="100%" y2="100%">
      <stop offset="0%" stop-color="#fbbf24"/>
      <stop offset="100%" stop-color="#f59e0b"/>
    </linearGradient>
    <linearGradient id="accent" x1="0%" y1="0%" x2="100%" y2="100%">
      <stop offset="0%" stop-color="#818cf8"/>
      <stop offset="100%" stop-color="#6366f1"/>
    </linearGradient>
    <linearGradient id="plus" x1="0%" y1="0%" x2="100%" y2="100%">
      <stop offset="0%" stop-color="#10b981"/>
      <stop offset="100%" stop-color="#059669"/>
    </linearGradient>
    <filter id="shadow" x="-20%" y="-20%" width="140%" height="140%">
      <feDropShadow dx="0" dy="8" stdDeviation="12" flood-opacity="0.4"/>
    </filter>
  </defs>

  <!-- Background rounded square -->
  <rect x="0" y="0" width="512" height="512" rx="100" fill="url(#bg)"/>

  <!-- Subtle glow -->
  <circle cx="150" cy="150" r="200" fill="#6366f1" opacity="0.1"/>

  <!-- Main folder with shadow -->
  <g filter="url(#shadow)">
    <path d="M70 180 L70 390 Q70 420 100 420 L412 420 Q442 420 442 390 L442 200 Q442 170 412 170 L280 170 L240 130 L100 130 Q70 130 70 160 Z" fill="url(#folder)"/>
  </g>

  <!-- Folder tab highlight -->
  <path d="M70 180 L70 160 Q70 130 100 130 L240 130 L280 170 L280 180 Z" fill="white" opacity="0.25"/>

  <!-- Structure lines -->
  <g stroke="#6366f1" stroke-width="6" stroke-linecap="round" fill="none">
    <line x1="140" y1="230" x2="140" y2="370"/>
    <line x1="140" y1="260" x2="200" y2="260"/>
    <line x1="140" y1="310" x2="200" y2="310"/>
    <line x1="140" y1="360" x2="200" y2="360"/>
    <line x1="265" y1="260" x2="265" y2="290"/>
    <line x1="265" y1="290" x2="305" y2="290"/>
  </g>

  <!-- Mini folders -->
  <g fill="url(#accent)">
    <rect x="205" y="248" width="55" height="32" rx="5"/>
    <rect x="205" y="298" width="55" height="32" rx="5"/>
    <rect x="205" y="348" width="55" height="32" rx="5"/>
    <rect x="310" y="278" width="45" height="26" rx="4"/>
  </g>

  <!-- Plus button -->
  <circle cx="385" cy="385" r="42" fill="url(#plus)"/>
  <g stroke="white" stroke-width="6" stroke-linecap="round">
    <line x1="385" y1="362" x2="385" y2="408"/>
    <line x1="362" y1="385" x2="408" y2="385"/>
  </g>
</svg>
