<svg xmlns="http://www.w3.org/2000/svg" viewBox="0 0 512 512">
  <defs>
    <linearGradient id="folder" x1="0%" y1="0%" x2="100%" y2="100%">
      <stop offset="0%" stop-color="#fbbf24"/>
      <stop offset="100%" stop-color="#f59e0b"/>
    </linearGradient>
    <linearGradient id="accent" x1="0%" y1="0%" x2="100%" y2="100%">
      <stop offset="0%" stop-color="#818cf8"/>
      <stop offset="100%" stop-color="#6366f1"/>
    </linearGradient>
    <linearGradient id="plus" x1="0%" y1="0%" x2="100%" y2="100%">
      <stop offset="0%" stop-color="#10b981"/>
      <stop offset="100%" stop-color="#059669"/>
    </linearGradient>
    <filter id="shadow" x="-20%" y="-20%" width="140%" height="140%">
      <feDropShadow dx="0" dy="6" stdDeviation="8" flood-opacity="0.3"/>
    </filter>
  </defs>

  <!-- Main folder with shadow - scaled up and centered -->
  <g filter="url(#shadow)">
    <path d="M30 140 L30 420 Q30 460 80 460 L432 460 Q482 460 482 420 L482 180 Q482 140 432 140 L270 140 L220 80 L80 80 Q30 80 30 130 Z" fill="url(#folder)"/>
  </g>

  <!-- Folder tab highlight -->
  <path d="M30 140 L30 130 Q30 80 80 80 L220 80 L270 140 L270 150 Z" fill="white" opacity="0.25"/>

  <!-- Structure lines - repositioned -->
  <g stroke="#6366f1" stroke-width="7" stroke-linecap="round" fill="none">
    <line x1="110" y1="200" x2="110" y2="400"/>
    <line x1="110" y1="240" x2="180" y2="240"/>
    <line x1="110" y1="310" x2="180" y2="310"/>
    <line x1="110" y1="380" x2="180" y2="380"/>
    <line x1="260" y1="240" x2="260" y2="280"/>
    <line x1="260" y1="280" x2="310" y2="280"/>
  </g>

  <!-- Mini folders - repositioned -->
  <g fill="url(#accent)">
    <rect x="185" y="224" width="70" height="40" rx="6"/>
    <rect x="185" y="294" width="70" height="40" rx="6"/>
    <rect x="185" y="364" width="70" height="40" rx="6"/>
    <rect x="315" y="262" width="55" height="34" rx="5"/>
  </g>

  <!-- Plus button - repositioned -->
  <circle cx="420" cy="400" r="52" fill="url(#plus)"/>
  <g stroke="white" stroke-width="7" stroke-linecap="round">
    <line x1="420" y1="372" x2="420" y2="428"/>
    <line x1="392" y1="400" x2="448" y2="400"/>
  </g>
</svg>
